<?xml version="1.0" encoding="UTF-8" standalone="no"?>
<svg width="251px" height="160px" viewBox="0 0 251 160" version="1.1" xmlns="http://www.w3.org/2000/svg" xmlns:xlink="http://www.w3.org/1999/xlink">
    <!-- Generator: Sketch 39.1 (31720) - http://www.bohemiancoding.com/sketch -->
    <title>verses</title>
    <desc>Created with Sketch.</desc>
    <defs>
        <linearGradient x1="54.205%" y1="100%" x2="45.9641185%" y2="2.01092156%" id="linearGradient-1">
            <stop stop-color="#DA5A47" offset="0%"></stop>
            <stop stop-color="#F67866" offset="100%"></stop>
        </linearGradient>
    </defs>
    <g id="Page-1" stroke="none" stroke-width="1" fill="none" fill-rule="evenodd">
        <g id="verses" transform="translate(-4.000000, -5.000000)">
            <path d="M125.39,157.309775 L125.39,156.709758 C86.64,125.708853 78.34,152.859646 13.49,152.859646 L18.59,29.9060556 C16.89,29.9060556 11.34,35.0962072 9.59,35.0962072 L4.49,163.699962 C58.34,163.699962 94.19,147.149479 115.14,159.499839 L115.14,159.84985 C115.304256,162.6043 117.487363,164.808875 120.24,165 L138.74,165 C141.492637,164.808875 143.675744,162.6043 143.84,159.84985 L143.84,159.559841 C164.79,147.209481 200.64,163.759964 254.49,163.759964 L248.14,35.1562089 C246.39,35.1562089 239.59,31.2560951 237.89,31.2160939 L244.29,154.219685 C179.44,154.219685 172.39,125.768855 133.64,156.76976 L133.64,157.369777 L125.39,157.309775 Z M230.39,21.6558148 C174.64,20.4557797 165.04,-12.0451692 133.49,17.1056819 C133.49,25.5059272 128.59,144.509402 128.59,144.509402 C128.59,144.509402 123.69,24.8559082 123.69,17.1056819 C92.14,-12.0451692 82.59,20.4557797 26.84,21.6558148 L21.74,145.159421 C80.29,143.859383 94.24,108.15834 128.59,151.859616 C162.94,108.15834 176.94,143.859383 235.44,145.159421 L230.39,21.6558148 Z" id="Shape" fill="url(#linearGradient-1)"></path>
            <rect id="_Slice_" x="0" y="0" width="259" height="178"></rect>
        </g>
    </g>
</svg>